<svg width="131" height="38" viewBox="0 0 131 38" fill="none" xmlns="http://www.w3.org/2000/svg">
<path d="M67.1563 25.5886C69.7834 25.5886 71.8869 24.2508 72.934 21.7809L70.7369 20.8827C70.0264 22.6603 68.8578 23.3339 67.1563 23.3339C64.3236 23.3339 63.1177 21.3225 63.1177 18.6935C63.1177 16.2424 64.3236 14.2309 67.1189 14.2309C68.8391 14.2309 70.2041 14.9044 70.6996 16.6446L72.9152 15.7652C71.8495 13.2953 69.7552 11.9668 67.1376 11.9668C62.7903 11.9668 60.7617 15.1664 60.7617 18.7871C60.7617 22.4171 62.8091 25.5886 67.1563 25.5886ZM76.4491 25.5886C76.9913 25.5886 77.6738 25.495 78.1507 25.4016V23.4836C77.9075 23.521 77.6551 23.5397 77.5242 23.5397C77.0661 23.5397 76.7763 23.3526 76.7763 22.9129V12.182H74.4953V23.5397C74.4953 25.1864 75.374 25.5886 76.4491 25.5886ZM83.8253 25.5886C86.7143 25.5886 88.612 23.3526 88.612 20.7049C88.612 18.0667 86.7143 15.8588 83.8253 15.8588C80.9366 15.8588 79.0387 18.0667 79.0387 20.7049C79.0387 23.3526 80.9366 25.5886 83.8253 25.5886ZM83.8253 23.6239C82.1052 23.6239 81.4134 22.2393 81.4134 20.7049C81.4134 19.1707 82.1052 17.8328 83.8253 17.8328C85.5549 17.8328 86.2374 19.1707 86.2374 20.7049C86.2374 22.2393 85.5549 23.6239 83.8253 23.6239ZM93.5483 25.5886C94.4738 25.5886 95.5583 25.2332 96.3061 24.3069V25.4016H98.5686V16.0552H96.3061V21.1635C96.3061 22.7913 95.4835 23.4836 94.2026 23.4836C93.034 23.4836 92.4171 22.6041 92.4171 21.3785V16.0552H90.1639V21.6687C90.1639 23.6239 91.0988 25.5886 93.5483 25.5886ZM104.533 25.5886C105.562 25.5886 106.599 25.2332 107.244 24.3444L107.347 25.4016H109.469V12.182H107.151V16.9908C106.506 16.1862 105.468 15.8588 104.496 15.8588C101.906 15.8588 100.485 18.1415 100.485 20.7237C100.485 23.3339 101.906 25.5886 104.533 25.5886ZM105.085 23.521C103.514 23.521 102.804 22.2955 102.804 20.7237C102.804 19.1707 103.514 17.9264 105.085 17.9264C106.655 17.9264 107.347 19.1519 107.347 20.7237C107.347 22.3141 106.655 23.521 105.085 23.521Z" fill="#0D2D51"/>
<path d="M119.588 16.0566H111.623V17.9652H116.634L111.352 23.8874V25.403H119.588V23.485H114.521L119.588 17.6845V16.0566ZM122.178 29.4259H124.664L130.003 16.0566H127.497L125.104 22.5495L122.748 16.0566H120.242L123.898 25.1504L122.178 29.4259Z" fill="#506781"/>
<path d="M46.8755 11.2667C49.8466 11.2667 52.255 8.85653 52.255 5.88338C52.255 2.91022 49.8466 0.5 46.8755 0.5C43.9045 0.5 41.4961 2.91022 41.4961 5.88338C41.4961 8.85653 43.9045 11.2667 46.8755 11.2667Z" fill="#FFD80C"/>
<path d="M52.2095 27.088C52.2073 24.2726 51.0906 21.573 49.1038 19.5798C47.117 17.5866 44.422 16.4624 41.6086 16.4531C40.4704 16.4903 42.2674 19.9141 42.2674 21.7751C42.2674 21.8016 42.5123 21.824 42.5123 21.8527C43.2718 21.9885 43.9927 22.288 44.6249 22.7307C45.257 23.1733 45.7854 23.7484 46.173 24.4159C46.5608 25.0834 46.7988 25.8274 46.8701 26.5963C46.9416 27.365 46.845 28.1402 46.587 28.8677C46.329 29.5955 45.9157 30.2581 45.3759 30.8099C44.8362 31.3616 44.183 31.7891 43.4614 32.0627C42.74 32.3364 41.9676 32.4496 41.1981 32.3943C40.4284 32.3392 39.68 32.1169 39.0049 31.7432C38.0184 31.7595 36.7886 31.3113 35.7658 32.2155C34.743 33.1197 34.3431 33.9131 34.9133 35.3592C36.7967 36.876 39.1378 37.7099 41.5552 37.7252H41.5815C42.9775 37.7257 44.3599 37.4508 45.6496 36.9163C46.9393 36.3819 48.1111 35.5984 49.0982 34.6105C50.0852 33.6226 50.868 32.4498 51.4019 31.159C51.9356 29.8683 52.2102 28.4849 52.2095 27.088Z" fill="#19C748"/>
<path d="M26.5735 5.81641C22.6238 5.81579 18.8147 7.28242 15.884 9.93211C12.9533 12.5818 11.1099 16.2258 10.7109 20.1581H16.0687C16.3767 18.1471 17.2549 16.2666 18.5986 14.7399C19.9425 13.2133 21.6958 12.1043 23.6505 11.5448C25.6051 10.9852 27.6792 10.9985 29.6265 11.583C31.5739 12.1675 33.3128 13.2988 34.637 14.8425C35.9612 16.3863 36.8152 18.2778 37.0974 20.2927C37.3798 22.3075 37.0787 24.361 36.2299 26.2098C35.381 28.0585 34.0201 29.6248 32.3086 30.7228C30.597 31.8208 28.6065 32.4044 26.5735 32.4045H17.3621V37.722H26.5735C30.8014 37.722 34.8561 36.0412 37.8457 33.0494C40.8352 30.0578 42.5147 26.0001 42.5147 21.7692C42.5147 17.5382 40.8352 13.4806 37.8457 10.4889C34.8561 7.49714 30.8014 5.81641 26.5735 5.81641Z" fill="#FB0F01"/>
<path d="M17.0033 37.7229H10.6265C8.52466 37.7228 6.4701 37.099 4.72258 35.9303C2.97506 34.7617 1.61306 33.1007 0.808806 31.1575C0.00455265 29.2143 -0.205837 27.076 0.204242 25.0131C0.61432 22.9501 1.62645 21.0553 3.11265 19.568C4.59884 18.0808 6.49237 17.0679 8.55377 16.6576C10.6152 16.2471 12.7519 16.4576 14.6937 17.2625C16.6356 18.0674 18.2954 19.4304 19.4632 21.1792C20.631 22.928 21.2543 24.984 21.2545 27.0873V33.4687C21.2516 34.5961 20.8028 35.6765 20.0062 36.4737C19.2096 37.271 18.1298 37.72 17.0033 37.7229ZM10.6265 21.7699C9.21719 21.7699 7.86566 22.3301 6.86916 23.3272C5.87267 24.3245 5.31284 25.677 5.31284 27.0873C5.31284 28.4975 5.87267 29.8501 6.86916 30.8473C7.86566 31.8445 9.21719 32.4047 10.6265 32.4047H15.9401V27.0873C15.936 25.6782 15.3748 24.3281 14.3792 23.3318C13.3836 22.3354 12.0345 21.7739 10.6265 21.7699Z" fill="#2C5EFF"/>
</svg>
